<svg xmlns="http://www.w3.org/2000/svg" width="72" height="38" viewBox="0 0 72 38" fill="none" role="img" aria-label="Legend">
  <path fill="#f4ede8" d="M19.3223 12.7719H24.2867C24.6185 12.7719 24.8675 12.6974 25.0334 12.5485C25.1994 12.3997 25.2823 12.1717 25.2823 11.8646C25.2947 11.0954 25.1195 10.4091 24.7566 9.80584C24.3937 9.20255 23.8974 8.7342 23.2678 8.40076C22.6381 8.06731 21.9433 7.9006 21.1834 7.9006C20.2963 7.9006 19.4635 8.12549 18.6849 8.57523C17.9064 9.02497 17.2806 9.66007 16.8076 10.4805C16.3346 11.3009 16.0981 12.2384 16.0981 13.293C16.0981 14.3259 16.3082 15.2424 16.7285 16.0427C17.1488 16.8429 17.7327 17.4648 18.4802 17.9083C19.2277 18.3519 20.0776 18.5737 21.0298 18.5737C21.5261 18.5737 22.0224 18.5062 22.5187 18.3713C23.0149 18.2364 23.488 18.0045 23.9377 17.6757C24.3875 17.3469 24.7597 16.9081 25.0544 16.359C25.1226 16.2319 25.1567 16.1078 25.1567 15.9868C25.1567 15.8255 25.1016 15.6922 24.9915 15.5867C24.8814 15.4813 24.7473 15.4285 24.5891 15.4285C24.4991 15.4285 24.4084 15.4479 24.3169 15.4867C24.2254 15.5255 24.1409 15.5852 24.0634 15.6658C23.3809 16.3947 22.5668 16.7592 21.6207 16.7592C21.1058 16.7592 20.6367 16.6452 20.2133 16.4172C19.7899 16.1892 19.4394 15.8379 19.1618 15.3634C18.8842 14.8888 18.7128 14.2964 18.6477 13.5861C18.6415 13.5179 18.6384 13.4682 18.6384 13.4372C18.6384 13.2201 18.6966 13.0549 18.8129 12.9417C18.9292 12.8285 19.099 12.7719 19.3223 12.7719ZM18.7687 10.9713C18.871 10.5774 19.0378 10.2455 19.2688 9.97566C19.4999 9.70581 19.7612 9.50575 20.0528 9.37549C20.3443 9.2452 20.639 9.18007 20.9368 9.18007C21.2252 9.18007 21.4998 9.24212 21.7603 9.36618C22.0208 9.49023 22.2418 9.68331 22.4233 9.94543C22.6048 10.2075 22.7172 10.5355 22.7606 10.9295C22.7637 10.9543 22.7653 10.99 22.7653 11.0365C22.7653 11.1947 22.7226 11.3164 22.6373 11.4017C22.552 11.487 22.4303 11.5296 22.2721 11.5296H19.1688C19.0416 11.5296 18.9393 11.4955 18.8617 11.4273C18.7842 11.359 18.7454 11.2629 18.7454 11.1388C18.7454 11.0954 18.7532 11.0396 18.7687 10.9713Z"/>
  <path fill="#f4ede8" d="M35.5577 21.4001C36.0866 20.7503 36.3509 20.0423 36.3509 19.2762C36.3509 18.8296 36.2477 18.4132 36.0414 18.027C35.8352 17.6408 35.5149 17.3284 35.0806 17.0895C34.6466 16.8507 34.1069 16.7297 33.4617 16.7266L30.0046 16.708C29.7163 16.708 29.4751 16.6731 29.2812 16.6033C29.0874 16.5335 28.9431 16.4412 28.8485 16.3265C28.754 16.2117 28.7066 16.0814 28.7066 15.9357C28.7066 15.824 28.7361 15.7046 28.795 15.5774C28.8726 15.4192 28.978 15.3083 29.1114 15.2448C29.2448 15.1812 29.406 15.1494 29.5951 15.1494C29.7132 15.1494 29.9023 15.1649 30.1629 15.1959C30.4949 15.2362 30.7709 15.2564 30.9912 15.2564C31.2392 15.2564 31.526 15.23 31.8517 15.1773C32.4814 15.0749 33.0451 14.8469 33.5431 14.4934C34.0409 14.1398 34.4277 13.7086 34.7037 13.1999C34.98 12.6912 35.118 12.1624 35.118 11.6134C35.118 11.4893 35.1117 11.3777 35.0994 11.2784C35.09 11.1947 35.0854 11.1155 35.0854 11.0411C35.0854 10.8798 35.1126 10.7495 35.1669 10.6503C35.2212 10.551 35.3086 10.4743 35.4297 10.42C35.5506 10.3657 35.7152 10.3277 35.9229 10.306C36.0997 10.2874 36.2523 10.2308 36.3812 10.1362C36.5097 10.0416 36.6069 9.92526 36.672 9.78723C36.7371 9.6492 36.7697 9.50575 36.7697 9.35686C36.7697 9.20489 36.7346 9.06376 36.6649 8.93349C36.5951 8.80321 36.4897 8.69775 36.3486 8.61708C36.2074 8.53646 36.036 8.49615 35.8343 8.49615C35.7134 8.49615 35.5863 8.51163 35.4529 8.54265C35.1832 8.59849 34.9426 8.62641 34.7317 8.62641C34.5114 8.62641 34.3092 8.60392 34.1246 8.55894C33.94 8.51397 33.7034 8.44341 33.4151 8.34725C33.1452 8.2542 32.9017 8.17821 32.6846 8.11926C32.4674 8.06035 32.2063 8.00994 31.9006 7.96807C31.5951 7.9262 31.25 7.90526 30.8654 7.90526C29.9349 7.90526 29.1479 8.06731 28.5043 8.39146C27.8606 8.71558 27.3791 9.15215 27.0596 9.70117C26.7401 10.2502 26.5804 10.8628 26.5804 11.5389C26.5804 12.0259 26.661 12.478 26.8223 12.8952C26.9836 13.3124 27.2101 13.6776 27.5016 13.9909C27.6071 14.1025 27.6846 14.2025 27.7342 14.2909C27.7839 14.3793 27.8087 14.4639 27.8087 14.5445C27.8087 14.6283 27.78 14.7097 27.7226 14.7888C27.6652 14.8679 27.5761 14.9539 27.4551 15.047C27.2039 15.2362 27.0077 15.4758 26.8666 15.7658C26.7254 16.0559 26.6548 16.3761 26.6548 16.7266C26.6548 17.2322 26.8022 17.6757 27.0968 18.0572C27.2333 18.231 27.3015 18.3752 27.3015 18.49C27.3015 18.5613 27.2775 18.6303 27.2294 18.697C27.1813 18.7637 27.1061 18.8327 27.0038 18.904C26.6874 19.1211 26.4323 19.3956 26.2384 19.7275C26.0446 20.0594 25.9476 20.4301 25.9476 20.8395C25.9476 21.4505 26.1438 21.9569 26.5362 22.3586C26.9286 22.7603 27.4481 23.0549 28.0948 23.2426C28.7416 23.4302 29.4557 23.5241 30.2374 23.5241C31.3911 23.5241 32.4343 23.3325 33.3663 22.9495C34.2983 22.5664 35.0289 22.0499 35.5577 21.4001ZM29.3254 10.2548C29.4557 9.87641 29.648 9.57631 29.9023 9.35454C30.1566 9.13278 30.4637 9.02188 30.8234 9.02188C31.1803 9.02188 31.4943 9.13044 31.7657 9.34757C32.0371 9.5647 32.2472 9.86867 32.3963 10.2595C32.5451 10.6503 32.6194 11.0969 32.6194 11.5994C32.6194 12.0709 32.552 12.4974 32.4171 12.8789C32.2823 13.2604 32.0869 13.5621 31.8309 13.7838C31.5749 14.0056 31.2717 14.1165 30.9211 14.1165C30.5614 14.1165 30.2466 14.0056 29.9769 13.7838C29.7069 13.5621 29.4983 13.255 29.351 12.8626C29.2037 12.4702 29.13 12.0228 29.13 11.5203C29.13 11.0551 29.1952 10.6332 29.3254 10.2548ZM33.4174 21.5258C32.932 21.7941 32.1697 21.9282 31.1306 21.9282C30.042 21.9282 29.2487 21.7863 28.7508 21.5025C28.253 21.2187 28.0041 20.81 28.0041 20.2765C28.0041 19.8175 28.1631 19.4949 28.481 19.3088C28.7989 19.1227 29.2572 19.0296 29.8557 19.0296H31.9494C32.7157 19.0296 33.2732 19.1374 33.622 19.353C33.9712 19.5686 34.1454 19.8981 34.1454 20.3417C34.1454 20.8628 33.9029 21.2575 33.4174 21.5258Z"/>
  <path fill="#f4ede8" d="M43.6926 18.3713C44.1889 18.2364 44.662 18.0045 45.1117 17.6757C45.5614 17.3469 45.9337 16.9081 46.2283 16.359C46.2966 16.2319 46.3306 16.1078 46.3306 15.9868C46.3306 15.8255 46.2757 15.6922 46.1654 15.5867C46.0554 15.4813 45.9212 15.4285 45.7631 15.4285C45.6731 15.4285 45.5823 15.4479 45.4909 15.4867C45.3994 15.5255 45.3149 15.5852 45.2374 15.6658C44.5549 16.3947 43.7409 16.7592 42.7949 16.7592C42.2797 16.7592 41.8106 16.6452 41.3874 16.4172C40.964 16.1892 40.6134 15.8379 40.3357 15.3634C40.0583 14.8888 39.8869 14.2964 39.8217 13.5861C39.8154 13.5179 39.8123 13.4682 39.8123 13.4372C39.8123 13.2201 39.8706 13.0549 39.9869 12.9417C40.1032 12.8285 40.2732 12.7719 40.4963 12.7719H45.4606C45.7926 12.7719 46.0414 12.6974 46.2074 12.5485C46.3734 12.3997 46.4563 12.1717 46.4563 11.8646C46.4689 11.0954 46.2934 10.4091 45.9306 9.80584C45.5677 9.20255 45.0714 8.7342 44.4417 8.40076C43.812 8.06731 43.1174 7.9006 42.3574 7.9006C41.4703 7.9006 40.6374 8.12549 39.8589 8.57523C39.0803 9.02497 38.4546 9.66007 37.9817 10.4805C37.5086 11.3009 37.272 12.2384 37.272 13.293C37.272 14.3259 37.4823 15.2424 37.9026 16.0427C38.3229 16.8429 38.9066 17.4648 39.6543 17.9083C40.4017 18.3519 41.2517 18.5737 42.2037 18.5737C42.7 18.5737 43.1963 18.5062 43.6926 18.3713ZM39.9426 10.9713C40.0452 10.5774 40.2117 10.2455 40.4429 9.97566C40.674 9.70581 40.9351 9.50575 41.2269 9.37549C41.5183 9.2452 41.8131 9.18007 42.1109 9.18007C42.3992 9.18007 42.6737 9.24212 42.9343 9.36618C43.1949 9.49023 43.4157 9.68331 43.5974 9.94543C43.7789 10.2075 43.8912 10.5355 43.9346 10.9295C43.9377 10.9543 43.9392 10.99 43.9392 11.0365C43.9392 11.1947 43.8966 11.3164 43.8114 11.4017C43.726 11.487 43.6043 11.5296 43.446 11.5296H40.3429C40.2157 11.5296 40.1132 11.4955 40.0357 11.4273C39.9583 11.359 39.9194 11.2629 39.9194 11.1388C39.9194 11.0954 39.9272 11.0396 39.9426 10.9713Z"/>
  <path fill="#f4ede8" d="M61.6146 17.9712C62.2877 18.3728 62.9872 18.5737 63.7129 18.5737C64.206 18.5737 64.6472 18.5016 65.0366 18.3574C65.4257 18.2131 65.8066 18.0076 66.1789 17.7409C66.3432 17.6323 66.5014 17.578 66.6535 17.578C66.7837 17.578 66.896 17.6199 66.9906 17.7037C67.0852 17.7874 67.1526 17.9068 67.1932 18.0619C67.2612 18.3814 67.4457 18.5411 67.7466 18.5411C67.8895 18.5411 68.0492 18.507 68.226 18.4388C68.412 18.3674 68.958 18.1549 69.8637 17.8014L70.38 17.5966C70.532 17.5346 70.6506 17.4408 70.736 17.3152C70.8212 17.1895 70.864 17.0554 70.864 16.9127C70.864 16.7638 70.8143 16.6343 70.7152 16.5242C70.6157 16.4141 70.4715 16.3466 70.2823 16.3218C69.994 16.297 69.7737 16.2482 69.6217 16.1753C69.4697 16.1024 69.362 15.9938 69.2983 15.8496C69.2349 15.7054 69.2029 15.503 69.2029 15.2424C69.1937 13.1518 69.1889 11.2458 69.1889 9.52438C69.1889 7.7998 69.1937 5.88604 69.2029 3.78305C69.2029 3.48528 69.1409 3.25652 69.0169 3.09678C68.8929 2.93705 68.7237 2.85718 68.5097 2.85718C68.3392 2.85718 68.1452 2.91146 67.928 3.02002C67.2797 3.36121 66.6377 3.67139 66.002 3.95054C65.8623 4.01568 65.7532 4.10563 65.674 4.22039C65.5949 4.33515 65.5555 4.45768 65.5555 4.58794C65.5555 4.71823 65.594 4.83997 65.6717 4.95318C65.7492 5.06639 65.8655 5.16021 66.0206 5.23465C66.2875 5.35873 66.4834 5.46728 66.6092 5.56034C66.7349 5.65339 66.8246 5.76815 66.8789 5.90463C66.9332 6.04112 66.9603 6.23186 66.9603 6.47691V7.73774C66.9603 7.91146 66.9254 8.04407 66.8557 8.13555C66.786 8.22707 66.6829 8.27281 66.5463 8.27281C66.45 8.27281 66.3432 8.25267 66.2252 8.21231C65.9369 8.10998 65.6483 8.03244 65.36 7.97968C65.0715 7.92698 64.7706 7.9006 64.4572 7.9006C63.4709 7.9006 62.5892 8.13323 61.8123 8.59849C61.0352 9.06376 60.428 9.71666 59.9909 10.5572C59.5534 11.3978 59.3349 12.3609 59.3349 13.4465C59.3349 14.5104 59.5466 15.4301 59.9697 16.2055C60.3932 16.981 60.9415 17.5695 61.6146 17.9712ZM62.1683 10.7154C62.4072 10.1757 62.7235 9.78646 63.1174 9.54764C63.5112 9.3088 63.9517 9.18938 64.4386 9.18938C64.9349 9.18938 65.3746 9.30026 65.7577 9.52204C66.1409 9.74381 66.4369 10.0261 66.6463 10.3688C66.8557 10.7115 66.9603 11.0597 66.9603 11.4133V14.5306C66.9603 14.9989 66.8566 15.4169 66.6486 15.7844C66.4409 16.152 66.1595 16.4381 65.8043 16.6429C65.4492 16.8476 65.0575 16.9499 64.6294 16.9499C64.0775 16.9499 63.588 16.7832 63.1615 16.4498C62.7352 16.1163 62.4032 15.6379 62.166 15.0144C61.9286 14.391 61.81 13.659 61.81 12.8184C61.81 11.9561 61.9295 11.2551 62.1683 10.7154Z"/>
  <path fill="#f4ede8" d="M52.2883 17.92C52.3489 17.8145 52.3791 17.7044 52.3791 17.5897C52.3791 17.4656 52.3426 17.3516 52.2697 17.2477C52.1969 17.1438 52.0906 17.0655 51.9512 17.0127C51.6037 16.898 51.3632 16.7832 51.23 16.6684C51.0966 16.5537 51.0074 16.3722 50.9623 16.1241C50.9174 15.8759 50.8857 15.4355 50.8671 14.8028C50.8577 14.3871 50.8531 13.9591 50.8531 13.5186C50.8531 13.072 50.8577 12.6067 50.8671 12.1228C50.8794 11.6235 50.9577 11.1954 51.102 10.8387C51.2463 10.482 51.4671 10.1998 51.7649 9.99194C51.9914 9.83067 52.2231 9.7097 52.4606 9.62903C52.6977 9.54841 52.9311 9.50809 53.1609 9.50809C53.4863 9.50809 53.7843 9.58718 54.054 9.74538C54.324 9.90355 54.5394 10.13 54.7009 10.4246C54.862 10.7193 54.9457 11.0621 54.952 11.4529C54.9614 12.0143 54.966 12.5819 54.966 13.1557C54.966 13.7264 54.9614 14.2708 54.952 14.7888C54.9397 15.4122 54.91 15.8527 54.8637 16.1101C54.8172 16.3676 54.7294 16.5521 54.6009 16.6638C54.472 16.7755 54.2431 16.8825 53.9146 16.9848C53.7626 17.0438 53.6477 17.1275 53.5703 17.2361C53.4926 17.3446 53.4537 17.464 53.4537 17.5943C53.4537 17.7091 53.4834 17.8192 53.5423 17.9246C53.6011 18.0301 53.6857 18.1162 53.7957 18.1829C53.906 18.2495 54.034 18.2845 54.1797 18.2875C54.5923 18.2907 55.228 18.2922 56.0872 18.2922C56.9403 18.2922 57.5637 18.2907 57.9577 18.2875C58.1094 18.2845 58.2423 18.2488 58.3554 18.1805C58.4686 18.1123 58.5554 18.0262 58.616 17.9223C58.6763 17.8184 58.7066 17.7091 58.7066 17.5943C58.7066 17.4671 58.6686 17.3501 58.5926 17.243C58.5166 17.136 58.4043 17.0562 58.2554 17.0034C57.9111 16.8949 57.6706 16.7801 57.5343 16.6591C57.3977 16.5382 57.3086 16.3521 57.2666 16.1008C57.2249 15.8496 57.1991 15.4169 57.19 14.8028C57.1806 14.2382 57.176 13.7047 57.176 13.2023C57.176 12.8083 57.1774 12.4478 57.1806 12.1205C57.1837 11.7933 57.1869 11.5025 57.19 11.2482L57.1946 10.9178C57.2037 10.2913 57.0829 9.75621 56.8317 9.31266C56.5803 8.86912 56.2346 8.53491 55.794 8.31004C55.3537 8.08515 54.8574 7.97273 54.3052 7.97273C53.9083 7.97273 53.4989 8.03244 53.0769 8.15184C52.6551 8.27126 52.2394 8.44883 51.83 8.68457C51.5911 8.81794 51.3803 8.88463 51.1974 8.88463C51.0514 8.88463 50.9306 8.8412 50.8346 8.75434C50.7383 8.66751 50.67 8.54035 50.6297 8.37284C50.5552 8.05338 50.3831 7.89364 50.1132 7.89364C49.9643 7.89364 49.7986 7.9386 49.6154 8.02855L49.1269 8.26583C48.4754 8.58533 47.9963 8.81484 47.6892 8.9544C47.5403 9.02886 47.4257 9.12347 47.3449 9.23823C47.2643 9.35301 47.224 9.47395 47.224 9.60113C47.224 9.71589 47.2574 9.82523 47.324 9.92915C47.3909 10.0331 47.4892 10.1238 47.6194 10.2013C47.9111 10.3595 48.1211 10.4968 48.25 10.6131C48.3786 10.7294 48.4717 10.8883 48.5292 11.09C48.5866 11.2916 48.6183 11.5909 48.6246 11.9879C48.6337 12.4842 48.6383 12.9851 48.6383 13.4907C48.6383 13.9249 48.6337 14.3685 48.6246 14.8213C48.612 15.4169 48.5812 15.8449 48.5314 16.1055C48.4817 16.366 48.3889 16.5545 48.2523 16.6708C48.1157 16.7871 47.8831 16.898 47.5543 17.0034C47.4086 17.0624 47.2992 17.1454 47.2263 17.2524C47.1534 17.3593 47.1171 17.4764 47.1171 17.6036C47.1171 17.7184 47.1466 17.827 47.2054 17.9293C47.2643 18.0317 47.3489 18.1162 47.4589 18.1829C47.5691 18.2495 47.6986 18.2845 47.8474 18.2875C48.2663 18.2907 48.8974 18.2922 49.7412 18.2922C50.5849 18.2922 51.216 18.2907 51.6346 18.2875C51.7834 18.2845 51.9146 18.2488 52.0277 18.1805C52.1411 18.1123 52.228 18.0255 52.2883 17.92Z"/>
  <path fill="#f4ede8" d="M48.6814 22.215C47.8952 21.7544 47.0089 21.5241 46.0223 21.5241C45.036 21.5241 44.1443 21.7552 43.3471 22.2173C42.55 22.6795 41.9234 23.3177 41.4674 24.1319C41.0114 24.9461 40.7837 25.8603 40.7837 26.8746C40.7837 27.8857 41.0054 28.7953 41.4489 29.6033C41.8926 30.4113 42.5083 31.0441 43.296 31.5015C44.0837 31.9592 44.974 32.1877 45.9666 32.1877C46.9529 32.1877 47.8432 31.9597 48.6372 31.504C49.4311 31.048 50.0546 30.4144 50.5074 29.6033C50.9603 28.7922 51.1869 27.8764 51.1869 26.856C51.1869 25.8448 50.9657 24.9337 50.5237 24.1226C50.0817 23.3115 49.4677 22.6756 48.6814 22.215ZM48.2906 29.2311C48.0689 29.7879 47.7726 30.2082 47.402 30.492C47.0311 30.7758 46.6271 30.9177 46.19 30.9177C45.7246 30.9177 45.282 30.7564 44.8617 30.4338C44.4414 30.1113 44.094 29.6351 43.8194 29.0055C43.5449 28.3758 43.3892 27.6252 43.3517 26.7536C43.3486 26.6823 43.3471 26.5799 43.3471 26.4465C43.3471 25.6711 43.458 25.0081 43.6797 24.4576C43.9017 23.907 44.1977 23.4922 44.5686 23.213C44.9392 22.9338 45.3432 22.7942 45.7806 22.7942C46.2457 22.7942 46.6892 22.954 47.1112 23.2735C47.5329 23.5929 47.8812 24.0629 48.1557 24.6832C48.43 25.3036 48.5846 26.0449 48.6186 26.9071C48.6217 26.9785 48.6231 27.0824 48.6231 27.2189C48.6231 28.0036 48.5123 28.6744 48.2906 29.2311Z"/>
  <path fill="#f4ede8" d="M59.4009 21.7079C59.1732 21.5853 58.8869 21.5241 58.5426 21.5241C58.3223 21.5241 58.1069 21.5567 57.896 21.6218C57.6849 21.6869 57.478 21.7738 57.2749 21.8823C57.0717 21.9909 56.832 22.132 56.556 22.3057C56.3452 22.4391 56.162 22.5058 56.0069 22.5058C55.7649 22.5058 55.5835 22.3336 55.4626 21.9893C55.3757 21.673 55.202 21.5148 54.9415 21.5148C54.808 21.5148 54.6452 21.5582 54.4529 21.6451C54.118 21.7939 53.7575 21.9645 53.3712 22.1568C52.9852 22.3492 52.744 22.4686 52.6477 22.5151L52.5175 22.5802C52.3686 22.6547 52.2537 22.7485 52.1732 22.8617C52.0926 22.9749 52.0523 23.0951 52.0523 23.2223C52.0523 23.3371 52.0863 23.4464 52.1546 23.5503C52.2229 23.6542 52.3237 23.7434 52.4569 23.8178C52.736 23.9636 52.9417 24.097 53.0734 24.2179C53.2052 24.3389 53.3006 24.5025 53.3597 24.7088C53.4186 24.9151 53.4512 25.2121 53.4572 25.5998C53.4666 26.0929 53.4712 26.5691 53.4712 27.0281C53.4712 27.4841 53.4666 27.954 53.4572 28.4379C53.4449 29.0334 53.4137 29.4607 53.3643 29.7197C53.3146 29.9787 53.2223 30.1671 53.0875 30.2849C52.9526 30.4028 52.7223 30.5145 52.3966 30.6199C52.2506 30.6789 52.1406 30.7611 52.0663 30.8665C51.9917 30.972 51.9546 31.0867 51.9546 31.2108C51.9546 31.3256 51.984 31.4349 52.0429 31.5389C52.1017 31.6426 52.1849 31.728 52.2917 31.7946C52.3989 31.8615 52.522 31.8977 52.6617 31.904C53.4557 31.9103 54.1335 31.9135 54.6949 31.9135C55.1943 31.9135 55.968 31.9103 57.0166 31.904C57.1686 31.9009 57.302 31.866 57.4166 31.7995C57.5315 31.7326 57.6192 31.6466 57.6795 31.5412C57.74 31.4358 57.7703 31.324 57.7703 31.2062C57.7703 31.0573 57.7206 30.9223 57.6215 30.8014C57.522 30.6804 57.3763 30.5951 57.184 30.5455C56.6909 30.4369 56.3512 30.3284 56.1652 30.2198C55.9789 30.1113 55.858 29.9383 55.8023 29.701C55.7463 29.4637 55.7123 29.0396 55.6997 28.4286C55.6906 28.0005 55.686 27.5725 55.686 27.1444C55.686 26.7164 55.6906 26.2977 55.6997 25.8882C55.706 25.4292 55.768 25.0345 55.886 24.7042C56.0037 24.3738 56.1629 24.1226 56.3629 23.9504C56.5629 23.7783 56.79 23.6922 57.0446 23.6922C57.308 23.6922 57.5763 23.7806 57.8494 23.9574C58.178 24.1621 58.4897 24.2645 58.7846 24.2645C59.0357 24.2645 59.2592 24.1962 59.4546 24.0597C59.65 23.9233 59.8012 23.7457 59.908 23.527C60.0152 23.3083 60.0686 23.0796 60.0686 22.8408C60.0686 22.6082 60.0143 22.3918 59.9057 22.1918C59.7972 21.9917 59.6289 21.8304 59.4009 21.7079Z"/>
  <path fill="#f4ede8" d="M70.8092 22.5523C70.7394 22.422 70.634 22.3166 70.4929 22.2359C70.3517 22.1553 70.1803 22.115 69.9786 22.115C69.8577 22.115 69.7306 22.1305 69.5971 22.1615C69.3274 22.2173 69.0869 22.2452 68.876 22.2452C68.6557 22.2452 68.4534 22.2227 68.2689 22.1778C68.0843 22.1328 67.8477 22.0622 67.5594 21.9661C67.2894 21.873 67.046 21.797 66.8289 21.7381C66.6117 21.6792 66.3506 21.6288 66.0449 21.5869C65.7394 21.545 65.3943 21.5241 65.0097 21.5241C64.0792 21.5241 63.292 21.6861 62.6486 22.0103C62.0049 22.3344 61.5234 22.771 61.204 23.32C60.8843 23.869 60.7246 24.4816 60.7246 25.1578C60.7246 25.6447 60.8054 26.0968 60.9666 26.514C61.128 26.9312 61.3543 27.2964 61.646 27.6097C61.7514 27.7213 61.8289 27.8214 61.8786 27.9098C61.928 27.9982 61.9529 28.0827 61.9529 28.1633C61.9529 28.2471 61.9243 28.3285 61.8669 28.4076C61.8094 28.4867 61.7203 28.5728 61.5994 28.6658C61.348 28.855 61.152 29.0947 61.0109 29.3847C60.8697 29.6747 60.7992 29.9949 60.7992 30.3454C60.7992 30.851 60.9466 31.2946 61.2412 31.676C61.3777 31.8497 61.4457 31.994 61.4457 32.1089C61.4457 32.18 61.4217 32.2492 61.3737 32.3157C61.3257 32.3826 61.2503 32.4515 61.148 32.5229C60.8317 32.74 60.5766 33.0146 60.3826 33.3463C60.1889 33.6783 60.092 34.0489 60.092 34.4583C60.092 35.0695 60.288 35.5758 60.6806 35.9775C61.0729 36.3792 61.5923 36.6737 62.2392 36.8615C62.8857 37.0492 63.6 37.1429 64.3817 37.1429C65.5354 37.1429 66.5783 36.9515 67.5106 36.5683C68.4426 36.1852 69.1731 35.6689 69.702 35.0189C70.2306 34.3692 70.4951 33.6612 70.4951 32.8952C70.4951 32.4483 70.392 32.032 70.1857 31.6458C69.9794 31.2597 69.6591 30.9472 69.2249 30.7083C68.7909 30.4695 68.2511 30.3485 67.606 30.3454L64.1489 30.3268C63.8606 30.3268 63.6194 30.2919 63.4254 30.2221C63.2317 30.1523 63.0874 30.0601 62.9929 29.9453C62.8983 29.8305 62.8509 29.7003 62.8509 29.5545C62.8509 29.4428 62.8803 29.3234 62.9394 29.1962C63.0169 29.038 63.1223 28.9271 63.2557 28.8636C63.3892 28.8 63.5503 28.7682 63.7394 28.7682C63.8574 28.7682 64.0466 28.7837 64.3071 28.8147C64.6392 28.855 64.9151 28.8752 65.1354 28.8752C65.3834 28.8752 65.6703 28.8488 65.996 28.7961C66.6257 28.6937 67.1894 28.4658 67.6871 28.1122C68.1851 27.7586 68.572 27.3274 68.848 26.8187C69.1243 26.3101 69.2623 25.7812 69.2623 25.2322C69.2623 25.1082 69.256 24.9965 69.2437 24.8972C69.2343 24.8135 69.2297 24.7344 69.2297 24.6599C69.2297 24.4987 69.2569 24.3684 69.3111 24.2691C69.3654 24.1699 69.4529 24.0931 69.574 24.0388C69.6949 23.9845 69.8591 23.9465 70.0672 23.9248C70.244 23.9062 70.3966 23.8496 70.5254 23.755C70.654 23.6604 70.7511 23.5441 70.8163 23.4061C70.8814 23.268 70.914 23.1246 70.914 22.9757C70.914 22.8237 70.8789 22.6826 70.8092 22.5523ZM64 32.6486H66.0937C66.86 32.6486 67.4174 32.7563 67.7663 32.9717C68.1154 33.1875 68.2897 33.5169 68.2897 33.9606C68.2897 34.4815 68.0471 34.8763 67.5617 35.1446C67.0763 35.4129 66.314 35.5472 65.2749 35.5472C64.1863 35.5472 63.3929 35.4052 62.8952 35.1215C62.3971 34.8375 62.1483 34.4289 62.1483 33.8955C62.1483 33.4363 62.3074 33.1138 62.6252 32.9277C62.9431 32.7415 63.4014 32.6486 64 32.6486ZM66.5614 26.4977C66.4263 26.8792 66.2311 27.1809 65.9751 27.4027C65.7191 27.6244 65.416 27.7353 65.0654 27.7353C64.7057 27.7353 64.3909 27.6244 64.1211 27.4027C63.8511 27.1809 63.6426 26.8738 63.4951 26.4814C63.348 26.0891 63.2743 25.6416 63.2743 25.1392C63.2743 24.6739 63.3394 24.2521 63.4697 23.8737C63.6 23.4952 63.7923 23.1952 64.0466 22.9734C64.3009 22.7516 64.608 22.6407 64.9677 22.6407C65.3246 22.6407 65.6386 22.7493 65.91 22.9664C66.1814 23.1835 66.3914 23.4875 66.5403 23.8783C66.6894 24.2691 66.7637 24.7158 66.7637 25.2183C66.7637 25.6897 66.6963 26.1162 66.5614 26.4977Z"/>
  <path fill="#f4ede8" d="M36.7169 25.4525C36.4749 25.315 36.2111 25.2463 35.9252 25.2463C35.636 25.2463 35.3714 25.315 35.1312 25.4525C34.8909 25.59 34.7 25.7781 34.5586 26.0167C34.4171 26.2553 34.3463 26.52 34.3463 26.8108C34.3463 27.1016 34.4171 27.3686 34.5586 27.612C34.7 27.8554 34.8914 28.0482 35.1334 28.1904C35.3754 28.3326 35.6391 28.4038 35.9252 28.4038C36.2111 28.4038 36.4749 28.3326 36.7169 28.1904C36.9589 28.0482 37.1503 27.8546 37.2917 27.6096C37.4332 27.3647 37.5037 27.0984 37.5037 26.8108C37.5037 26.52 37.4332 26.2553 37.2917 26.0167C37.1503 25.7781 36.9589 25.59 36.7169 25.4525Z"/>
  <path fill="#f4ede8" d="M14.7822 14.1168C14.6783 14.0594 14.5659 14.0299 14.4449 14.0299C14.2929 14.0299 14.1502 14.078 14.0169 14.1726C13.8835 14.2672 13.7842 14.4037 13.7191 14.5836C13.4524 15.3249 13.2228 15.8444 13.0305 16.1407C12.8382 16.4369 12.5497 16.6432 12.1651 16.7595C11.7805 16.8758 11.1664 16.9332 10.3227 16.9332C9.60929 16.9332 9.09363 16.8789 8.77568 16.7688C8.45778 16.6587 8.2422 16.4431 8.12901 16.122C8.01578 15.801 7.95764 15.2768 7.95452 14.551C7.95141 14.123 7.94986 13.4732 7.94986 12.6016C7.94986 11.64 7.95298 10.145 7.95917 8.11649C7.96226 7.46823 7.98476 7.01692 8.02663 6.76256C8.06851 6.50823 8.16697 6.31123 8.32207 6.17011C8.47715 6.02898 8.76717 5.85686 9.19212 5.65524C9.3317 5.58391 9.43638 5.49397 9.50617 5.38382C9.57594 5.27372 9.61084 5.1574 9.61084 5.03645C9.61084 4.91856 9.57983 4.80692 9.5178 4.70145C9.45576 4.59598 9.36814 4.51224 9.25492 4.45023C9.14172 4.38818 9.0122 4.35718 8.86644 4.35718C8.25537 4.36956 7.52492 4.37577 6.67506 4.37577L4.19555 4.3719C2.7161 4.40137 1.45012 5.12992 1.0057 6.24217C0.70886 6.98512 0.643605 8.195 1.43275 8.96312C2.14286 9.65429 3.18344 9.70588 3.75223 9.48887C4.32104 9.27187 4.64855 8.734 4.71718 8.26212C4.80357 7.66809 4.60238 7.08951 4.04487 6.82427C3.44608 6.53934 2.8053 7.12666 2.4699 6.79126C2.26461 6.58597 2.35203 6.19284 2.47175 6.00003C2.79063 5.4865 3.67346 5.518 4.18518 5.63836C4.84335 5.79318 5.25411 6.27551 5.37566 6.51784C5.49377 6.75323 5.54907 6.98103 5.56541 7.28247C5.57781 7.51127 5.58635 7.79386 5.59101 8.13041C5.60341 9.5076 5.6096 10.5389 5.6096 11.2244C5.6096 12.2294 5.60186 13.3569 5.58635 14.6069C5.58015 15.221 5.54912 15.6661 5.49328 15.9406C5.43746 16.2151 5.33046 16.4229 5.17226 16.564C5.01407 16.7052 4.74424 16.8463 4.36272 16.989C4.22004 17.051 4.113 17.1379 4.04166 17.248C3.97035 17.3581 3.93466 17.476 3.93466 17.6031C3.93466 17.7241 3.9657 17.8389 4.02773 17.9474C4.08975 18.056 4.1766 18.1459 4.28826 18.2157C4.39992 18.2855 4.5271 18.3197 4.66978 18.3197H5.62355C6.69367 18.3197 8.34844 18.3259 10.5879 18.3382C11.2796 18.3444 12.3435 18.3507 13.7796 18.3569C14.0091 18.3569 14.196 18.3243 14.3402 18.2592C14.4845 18.194 14.5961 18.0901 14.6752 17.9459C14.7543 17.8017 14.8109 17.6047 14.845 17.3565L15.1242 14.8627C15.1273 14.8379 15.1288 14.8038 15.1288 14.7604C15.1288 14.6084 15.097 14.4781 15.0335 14.368C14.9699 14.2579 14.8861 14.1742 14.7822 14.1168Z"/>
</svg>
